<svg width="54" height="58" viewBox="0 0 54 58" fill="none" xmlns="http://www.w3.org/2000/svg">
<path fill-rule="evenodd" clip-rule="evenodd" d="M3.59998 5.8C3.59998 4.26174 4.1689 2.78649 5.1816 1.69878C6.1943 0.61107 7.56781 0 8.99998 0L38.5452 0L50.4 12.7329V52.2C50.4 53.7383 49.831 55.2135 48.8183 56.3012C47.8057 57.3889 46.4321 58 45 58H8.99998C7.56781 58 6.1943 57.3889 5.1816 56.3012C4.1689 55.2135 3.59998 53.7383 3.59998 52.2V5.8ZM25.2 15.4667H14.4V19.3333H25.2V15.4667ZM39.6 27.0667H14.4V30.9333H39.6V27.0667ZM22.698 42.1776C21.2436 42.5952 20.106 43.79 19.71 45.0776L16.29 43.8557C17.0928 41.2767 19.1952 39.1848 21.762 38.4424C24.3072 37.7077 27.2124 38.3264 29.7252 40.8049C30.4812 40.5691 31.2264 40.4337 31.9644 40.3912C33.9084 40.2791 35.6472 40.8049 37.1412 41.4739C38.2392 41.9649 39.3012 42.5836 40.2012 43.1056C40.482 43.2757 40.752 43.4304 41.0004 43.5696C42.1632 44.2269 42.8004 44.4667 43.2 44.4667V48.3333C41.796 48.3333 40.4136 47.6064 39.3264 46.9955C38.9987 46.8098 38.6723 46.6216 38.3472 46.4309C37.5063 45.92 36.6411 45.4566 35.7552 45.0428C34.5528 44.5015 33.3684 44.1844 32.1588 44.254C31.9781 44.2634 31.7979 44.2815 31.6188 44.3081L31.6224 44.3623C31.7196 45.6151 31.2372 46.6475 30.6144 47.3899C29.4696 48.7587 27.6012 49.4779 26.1972 49.7485C25.4697 49.9053 24.7237 49.9379 23.9868 49.8452C23.5688 49.7877 23.1653 49.6433 22.7988 49.4199C22.5138 49.2437 22.2684 49.0024 22.0799 48.7131C21.8914 48.4238 21.7644 48.0935 21.708 47.7456C21.6194 47.095 21.7621 46.4324 22.1076 45.8896C22.369 45.4771 22.687 45.1095 23.0508 44.7992C23.7348 44.1921 24.7248 43.5348 26.0532 42.8156L26.1504 42.7383C25.6399 42.3978 25.0702 42.1726 24.4761 42.0762C23.8819 41.9798 23.2757 42.0143 22.6944 42.1776H22.698Z" fill="#F3F3F3"/>
</svg>
