<svg width="245" height="245" viewBox="0 0 245 245" fill="none" xmlns="http://www.w3.org/2000/svg">
<ellipse cx="119" cy="131" rx="103" ry="99" fill="#B3B4B5"/>
<path d="M216.709 200.636C229.284 185.518 238.03 167.597 242.207 148.388C246.384 129.179 245.869 109.247 240.707 90.2788C235.544 71.3104 225.885 53.8635 212.546 39.414C199.208 24.9644 182.583 13.9374 164.077 7.26559C145.571 0.593811 125.73 -1.5264 106.231 1.08433C86.7314 3.69505 68.1483 10.9599 52.0535 22.2643C35.9586 33.5687 22.8254 48.5801 13.7648 66.0286C4.70419 83.4771 -0.017185 102.849 4.70005e-05 122.507C0.0066595 151.083 10.085 178.744 28.4666 200.636L28.2915 200.785C28.9044 201.52 29.6049 202.15 30.2354 202.876C31.0235 203.777 31.8728 204.625 32.6871 205.5C35.1389 208.16 37.6607 210.715 40.3051 213.112C41.1107 213.847 41.9425 214.529 42.7568 215.229C45.5588 217.644 48.4396 219.936 51.4255 222.071C51.8108 222.334 52.1611 222.675 52.5463 222.946V222.841C73.0544 237.261 97.5194 245 122.596 245C147.673 245 172.138 237.261 192.646 222.841V222.946C193.032 222.675 193.373 222.334 193.767 222.071C196.744 219.928 199.634 217.644 202.436 215.229C203.25 214.529 204.082 213.838 204.888 213.112C207.532 210.706 210.054 208.16 212.506 205.5C213.32 204.625 214.161 203.777 214.957 202.876C215.579 202.15 216.288 201.52 216.901 200.776L216.709 200.636ZM122.588 52.5142C130.381 52.5142 137.999 54.8232 144.479 59.1493C150.959 63.4755 156.009 69.6243 158.991 76.8184C161.974 84.0125 162.754 91.9287 161.234 99.5658C159.713 107.203 155.96 114.218 150.45 119.724C144.939 125.23 137.918 128.98 130.275 130.499C122.631 132.018 114.709 131.239 107.509 128.259C100.309 125.279 94.1548 120.233 89.8251 113.758C85.4954 107.284 83.1845 99.6718 83.1845 91.885C83.1845 81.4432 87.3359 71.4291 94.7254 64.0456C102.115 56.6622 112.137 52.5142 122.588 52.5142V52.5142ZM52.5989 200.636C52.7508 189.148 57.4231 178.182 65.605 170.11C73.787 162.038 84.8206 157.509 96.3188 157.503H148.856C160.355 157.509 171.388 162.038 179.57 170.11C187.752 178.182 192.424 189.148 192.576 200.636C173.372 217.927 148.438 227.496 122.588 227.496C96.7369 227.496 71.8027 217.927 52.5989 200.636V200.636Z" fill="#F3F3F3"/>
</svg>
