<svg width="73" height="73" viewBox="0 0 73 73" fill="none" xmlns="http://www.w3.org/2000/svg">
<path d="M31.9375 63.875C31.9375 63.875 27.375 63.875 27.375 59.3125C27.375 54.75 31.9375 41.0625 50.1875 41.0625C68.4375 41.0625 73 54.75 73 59.3125C73 63.875 68.4375 63.875 68.4375 63.875H31.9375ZM50.1875 36.5C53.8177 36.5 57.2991 35.0579 59.866 32.491C62.4329 29.9241 63.875 26.4427 63.875 22.8125C63.875 19.1823 62.4329 15.7009 59.866 13.134C57.2991 10.5671 53.8177 9.125 50.1875 9.125C46.5573 9.125 43.0759 10.5671 40.509 13.134C37.9421 15.7009 36.5 19.1823 36.5 22.8125C36.5 26.4427 37.9421 29.9241 40.509 32.491C43.0759 35.0579 46.5573 36.5 50.1875 36.5V36.5Z" fill="#F3F3F3"/>
<path fill-rule="evenodd" clip-rule="evenodd" d="M23.798 63.875C23.1216 62.4507 22.7843 60.889 22.8125 59.3125C22.8125 53.1303 25.915 46.7656 31.6455 42.34C28.7852 41.4587 25.8053 41.0277 22.8125 41.0625C4.5625 41.0625 0 54.75 0 59.3125C0 63.875 4.5625 63.875 4.5625 63.875H23.798Z" fill="#F3F3F3"/>
<path d="M20.5312 36.5C23.5564 36.5 26.4576 35.2983 28.5967 33.1592C30.7358 31.0201 31.9375 28.1189 31.9375 25.0938C31.9375 22.0686 30.7358 19.1674 28.5967 17.0283C26.4576 14.8892 23.5564 13.6875 20.5312 13.6875C17.5061 13.6875 14.6049 14.8892 12.4658 17.0283C10.3267 19.1674 9.125 22.0686 9.125 25.0938C9.125 28.1189 10.3267 31.0201 12.4658 33.1592C14.6049 35.2983 17.5061 36.5 20.5312 36.5V36.5Z" fill="#F3F3F3"/>
</svg>
